<?xml version="1.0" standalone="no"?>
<svg xmlns="http://www.w3.org/2000/svg"
 viewBox="0 0 956.81 1068.98"
 preserveAspectRatio="xMidYMid meet">
<g transform="translate(83.97,0)">
<g transform="translate(-293.865345,788.930719) scale(0.100000,-0.100000)"
fill="#0d1117" stroke="none">
<path d="M6620 7878 c-19 -6 -89 -14 -155 -19 -176 -12 -257 -23 -282 -37 -12
-7 -46 -12 -76 -12 -36 0 -59 -5 -67 -15 -8 -9 -29 -15 -56 -15 -23 0 -46 -4
-49 -10 -3 -5 -26 -10 -50 -10 -25 0 -50 -6 -59 -15 -8 -8 -30 -15 -50 -15
-19 0 -38 -4 -41 -10 -3 -5 -22 -10 -41 -10 -22 0 -37 -6 -40 -15 -4 -8 -18
-15 -34 -15 -15 0 -33 -7 -40 -15 -7 -8 -25 -15 -40 -15 -16 0 -30 -7 -34 -16
-4 -11 -14 -15 -31 -11 -18 3 -29 -1 -35 -13 -6 -11 -27 -20 -60 -24 -27 -4
-50 -11 -50 -16 0 -6 -11 -10 -24 -10 -13 0 -26 -7 -30 -15 -3 -8 -14 -15 -24
-15 -10 0 -23 -5 -28 -10 -6 -6 -20 -12 -32 -15 -13 -2 -35 -13 -51 -24 -16
-12 -36 -21 -44 -21 -8 0 -17 -7 -21 -15 -3 -8 -15 -15 -26 -15 -11 0 -20 -4
-20 -10 0 -5 -11 -10 -25 -10 -14 0 -25 -3 -25 -8 0 -4 -15 -13 -32 -21 -18
-8 -35 -17 -38 -20 -8 -9 -42 -29 -87 -51 -24 -11 -43 -25 -43 -30 0 -6 -5
-10 -11 -10 -6 0 -25 -11 -43 -25 -18 -14 -38 -25 -43 -25 -6 0 -13 -6 -16
-13 -3 -8 -21 -22 -41 -31 -20 -9 -36 -21 -36 -26 0 -6 -7 -10 -14 -10 -18 0
-66 -43 -66 -59 0 -6 -8 -11 -18 -11 -10 0 -27 -8 -38 -18 -10 -9 -46 -40 -79
-67 -33 -28 -63 -53 -66 -58 -3 -4 -21 -18 -40 -32 -44 -33 -244 -229 -289
-285 -19 -23 -43 -50 -52 -58 -10 -9 -18 -21 -18 -28 0 -6 -17 -27 -37 -46
-59 -55 -103 -108 -103 -124 0 -8 -7 -14 -16 -14 -8 0 -22 -16 -30 -35 -8 -19
-18 -35 -23 -35 -6 0 -13 -10 -17 -22 -4 -13 -15 -29 -25 -36 -11 -7 -19 -20
-19 -28 0 -8 -11 -25 -25 -38 -14 -13 -25 -30 -25 -39 0 -8 -7 -17 -15 -21 -8
-3 -15 -12 -15 -20 0 -7 -7 -16 -15 -20 -8 -3 -15 -15 -15 -26 0 -11 -7 -23
-15 -26 -8 -4 -15 -15 -15 -25 0 -10 -3 -19 -8 -19 -4 0 -16 -20 -27 -45 -11
-25 -23 -45 -27 -45 -8 0 -38 -59 -38 -75 0 -7 -7 -15 -15 -19 -8 -3 -15 -13
-15 -22 0 -20 -57 -141 -71 -149 -5 -4 -9 -16 -9 -28 0 -13 -9 -30 -19 -39
-13 -11 -18 -24 -14 -37 3 -12 1 -21 -6 -21 -6 0 -11 -11 -11 -24 0 -13 -6
-26 -14 -29 -8 -3 -17 -24 -21 -46 -4 -23 -11 -41 -16 -41 -5 0 -9 -11 -9 -24
0 -14 -4 -28 -10 -31 -5 -3 -10 -16 -10 -29 0 -12 -7 -31 -15 -42 -8 -10 -15
-34 -15 -52 0 -20 -6 -35 -15 -38 -8 -4 -15 -18 -15 -33 0 -15 -7 -36 -15 -47
-8 -10 -15 -38 -15 -61 0 -23 -5 -43 -12 -45 -6 -2 -13 -30 -16 -61 -2 -31 -8
-57 -13 -57 -5 0 -9 -26 -9 -58 0 -36 -6 -66 -15 -78 -8 -10 -15 -38 -15 -61
0 -23 -7 -68 -15 -100 -8 -31 -15 -88 -15 -126 0 -37 -4 -77 -10 -87 -6 -11
-10 -153 -11 -347 -1 -275 1 -337 15 -386 9 -32 16 -89 16 -127 0 -38 5 -72
10 -75 6 -3 10 -35 10 -71 0 -45 5 -70 15 -80 10 -10 15 -35 15 -70 0 -30 4
-54 9 -54 5 0 12 -24 15 -52 4 -29 10 -71 13 -93 3 -22 12 -44 19 -48 8 -4 14
-20 14 -36 0 -38 29 -131 40 -131 6 0 10 -18 10 -39 0 -22 6 -46 14 -54 8 -8
18 -31 21 -51 4 -20 11 -36 16 -36 5 0 9 -7 9 -15 0 -8 5 -15 10 -15 6 0 10
-16 10 -35 0 -22 6 -38 15 -41 9 -4 15 -19 15 -38 0 -20 7 -35 20 -44 12 -7
20 -23 20 -38 0 -14 11 -40 25 -58 14 -18 25 -44 25 -58 0 -14 7 -28 15 -32 8
-3 15 -17 15 -31 0 -16 6 -25 15 -25 14 0 20 -17 16 -47 -1 -7 8 -17 19 -23
11 -6 20 -17 20 -25 0 -9 13 -34 30 -57 17 -22 30 -46 30 -53 0 -7 11 -23 24
-37 12 -14 26 -33 29 -42 4 -9 11 -16 17 -16 5 0 10 -8 10 -19 0 -10 12 -31
26 -46 14 -16 31 -41 36 -57 6 -15 16 -28 23 -28 7 0 16 -8 19 -17 11 -32 31
-60 69 -98 20 -20 37 -43 37 -51 0 -8 27 -42 60 -77 33 -34 60 -68 60 -74 0
-7 5 -13 10 -13 6 0 10 -7 10 -15 0 -8 6 -16 13 -16 6 -1 73 -66 147 -144 74
-78 143 -143 153 -144 9 0 17 -8 17 -16 0 -8 6 -15 14 -15 8 0 16 -4 18 -8 4
-10 93 -89 133 -117 39 -27 74 -57 93 -77 9 -10 22 -18 28 -18 7 0 25 -11 41
-24 15 -13 42 -30 59 -39 17 -9 44 -28 61 -44 16 -15 51 -38 77 -50 25 -13 46
-27 46 -32 0 -5 13 -12 29 -16 16 -3 32 -12 34 -20 3 -7 22 -18 41 -25 20 -6
36 -15 36 -20 0 -5 13 -11 29 -15 16 -3 32 -13 35 -21 3 -8 17 -14 31 -14 16
0 25 -6 25 -15 0 -9 9 -15 24 -15 13 0 29 -7 36 -15 7 -8 21 -15 31 -15 11 0
19 -4 19 -10 0 -5 14 -10 30 -10 19 0 30 -5 30 -14 0 -8 13 -17 30 -21 16 -4
32 -11 35 -16 4 -5 17 -9 30 -9 13 0 27 -5 30 -10 3 -6 17 -10 31 -10 14 0 27
-6 30 -14 3 -8 24 -18 47 -22 23 -3 51 -13 62 -20 11 -8 32 -14 47 -14 14 0
33 -7 42 -15 8 -8 23 -15 33 -15 10 0 44 -9 76 -20 31 -11 65 -20 76 -20 11 0
23 -4 26 -10 3 -5 21 -10 40 -10 20 0 35 -6 39 -15 4 -10 20 -15 54 -15 26 0
54 -6 60 -12 7 -7 38 -13 69 -13 35 -1 58 -6 61 -13 2 -7 23 -12 53 -12 27 0
84 -10 127 -21 73 -21 100 -22 467 -22 390 -1 627 11 648 32 6 6 37 11 68 11
32 0 61 4 64 10 3 5 32 10 65 10 42 0 59 4 64 15 4 11 20 15 55 15 34 0 51 4
55 15 3 9 18 15 40 15 19 0 37 4 41 9 3 6 26 13 52 17 25 4 58 13 72 20 14 8
36 14 49 14 12 0 22 4 22 9 0 5 18 12 40 16 22 4 40 11 40 16 0 5 16 9 35 9
19 0 35 5 35 10 0 6 11 10 25 10 14 0 28 7 31 15 4 8 17 15 29 15 13 0 26 4
29 9 3 5 22 12 41 15 19 4 35 11 35 16 0 6 14 10 30 10 20 0 30 5 30 15 0 8 5
15 11 15 11 0 67 23 101 41 10 5 27 9 38 9 11 0 20 7 20 15 0 8 12 18 27 21
15 4 34 13 41 21 7 7 20 13 28 13 8 0 14 5 14 10 0 6 9 10 20 10 11 0 29 9 40
20 11 11 27 20 35 20 9 0 18 7 21 15 4 8 15 15 25 15 10 0 19 7 19 15 0 8 9
15 19 15 11 0 23 4 26 10 3 5 21 17 40 26 19 9 35 23 35 31 0 9 6 13 15 9 8
-3 30 9 51 29 20 19 42 35 49 35 7 0 23 11 36 25 13 13 27 25 31 25 4 0 26 18
48 40 22 22 45 40 49 40 5 0 19 11 32 25 13 13 30 25 37 25 6 0 12 4 12 9 0 5
16 19 35 32 19 13 35 30 35 37 0 6 6 12 14 12 13 0 326 306 326 319 0 3 9 12
20 19 11 7 20 18 20 26 0 8 7 16 15 20 8 3 15 12 15 20 0 8 9 17 19 21 11 3
26 19 33 35 7 17 16 30 20 30 5 0 8 7 8 15 0 8 9 19 20 25 11 6 20 17 20 26 0
8 7 17 15 21 9 3 24 22 35 43 11 21 26 40 35 43 8 4 15 14 15 24 0 10 16 35
35 57 19 21 35 44 35 51 0 7 6 15 14 18 8 3 17 19 21 36 4 17 13 31 21 31 8 0
14 10 14 25 0 14 5 25 10 25 6 0 10 5 10 10 0 6 9 20 20 32 11 12 20 34 20 50
0 18 5 28 15 28 9 0 15 9 15 25 0 16 6 25 15 25 10 0 15 10 15 30 0 20 5 30
15 30 9 0 15 9 15 25 0 14 5 25 10 25 6 0 10 9 10 20 0 11 7 23 15 26 9 4 15
19 15 35 0 16 5 29 10 29 6 0 10 9 10 19 0 10 7 21 15 25 8 3 15 16 15 30 0
13 7 26 15 30 9 3 15 18 15 35 0 16 7 36 15 44 8 8 17 33 21 55 3 23 13 43 20
46 8 3 14 20 14 38 0 57 12 108 25 108 7 0 15 19 18 46 2 26 9 49 15 53 10 6
30 87 39 161 3 25 10 48 15 51 5 3 11 30 14 59 3 30 9 59 13 64 5 6 11 40 14
75 3 35 10 68 16 74 6 6 11 49 11 97 0 47 5 91 10 96 7 7 9 137 6 385 -4 375
-14 544 -35 609 -6 19 -11 54 -11 76 0 23 -7 55 -15 70 -8 16 -15 50 -15 75 0
31 -5 49 -14 52 -9 4 -16 27 -19 64 -9 95 -19 138 -33 146 -8 5 -14 25 -14 48
0 23 -7 47 -15 55 -8 9 -15 29 -15 45 0 16 -4 29 -10 29 -5 0 -13 18 -16 40
-4 22 -10 40 -15 40 -5 0 -12 18 -15 40 -4 22 -10 40 -15 40 -5 0 -9 13 -9 29
0 17 -4 32 -9 36 -17 10 -40 65 -34 81 3 8 -1 14 -11 14 -11 0 -18 13 -22 40
-4 22 -10 40 -15 40 -5 0 -9 9 -9 20 0 11 -6 20 -14 20 -9 0 -12 7 -9 20 3 11
0 20 -6 20 -6 0 -11 9 -11 20 0 11 -7 23 -15 26 -8 4 -15 17 -15 30 0 15 -6
24 -16 24 -12 0 -15 6 -11 21 3 12 0 22 -9 26 -8 3 -14 11 -14 19 0 8 -4 14
-10 14 -5 0 -10 11 -10 25 0 14 -4 25 -9 25 -11 0 -41 57 -41 77 0 7 -7 16
-15 19 -8 4 -15 15 -15 25 0 11 -7 22 -15 25 -8 4 -15 13 -15 20 0 8 -7 17
-15 20 -8 4 -15 14 -15 25 0 10 -9 23 -20 29 -11 6 -20 17 -20 24 0 7 -11 23
-25 36 -14 13 -25 27 -25 32 0 10 -11 24 -52 68 -16 15 -28 35 -28 42 0 8 -14
27 -31 44 -17 16 -41 45 -54 64 -12 19 -35 49 -50 65 -81 89 -127 135 -135
135 -6 0 -10 4 -10 10 0 12 -63 75 -84 83 -9 4 -16 13 -16 22 0 8 -3 15 -7 15
-5 0 -41 32 -80 70 -40 39 -75 70 -78 70 -6 0 -47 35 -102 88 -24 23 -62 54
-84 69 -21 14 -39 30 -39 34 0 5 -7 9 -14 9 -8 0 -27 11 -42 25 -15 14 -33 25
-40 25 -7 0 -18 9 -24 20 -6 11 -18 20 -26 20 -9 0 -33 14 -54 30 -21 17 -43
30 -49 30 -6 0 -11 5 -11 10 0 6 -6 10 -14 10 -8 0 -17 7 -20 16 -3 9 -13 14
-21 10 -8 -3 -18 0 -22 7 -5 7 -34 25 -65 41 -32 15 -60 31 -63 37 -4 5 -15 9
-26 9 -10 0 -19 4 -19 9 0 5 -16 15 -35 21 -19 6 -35 16 -35 21 0 5 -11 9 -24
9 -13 0 -29 7 -36 15 -7 8 -23 15 -35 15 -13 0 -25 7 -29 15 -3 8 -16 15 -30
15 -13 0 -26 7 -30 15 -3 8 -16 15 -29 15 -14 0 -30 7 -38 16 -8 9 -22 14 -37
11 -14 -3 -26 1 -29 9 -3 8 -18 14 -34 14 -17 0 -32 6 -35 15 -4 8 -18 15 -34
15 -15 0 -33 7 -40 15 -7 8 -25 15 -40 15 -15 0 -33 7 -40 15 -7 8 -28 15 -46
15 -19 0 -34 5 -34 10 0 6 -17 10 -39 10 -22 0 -44 6 -51 15 -8 9 -29 15 -56
15 -23 0 -46 5 -49 10 -3 6 -26 10 -50 10 -25 0 -50 6 -59 15 -9 9 -34 15 -68
15 -31 1 -61 7 -72 15 -13 10 -43 15 -82 15 -35 0 -66 5 -69 10 -4 6 -61 10
-138 10 -89 1 -145 6 -172 15 -48 18 -458 19 -515 3z m537 -1143 c19 -8 50
-15 68 -15 20 0 35 -6 39 -15 3 -10 19 -15 45 -15 25 0 41 -5 45 -15 3 -8 16
-15 30 -15 14 0 28 -4 31 -10 3 -5 14 -10 25 -10 10 0 20 -7 24 -15 3 -8 13
-15 23 -15 10 0 24 -9 31 -20 7 -11 19 -20 27 -20 8 0 15 -4 15 -10 0 -5 7
-10 15 -10 8 0 15 -5 15 -10 0 -6 11 -16 25 -22 14 -6 25 -15 25 -21 0 -5 20
-30 45 -55 25 -25 45 -50 45 -56 0 -7 9 -19 20 -29 11 -9 20 -23 20 -31 0 -8
6 -16 14 -19 8 -3 16 -18 18 -34 2 -16 8 -27 16 -26 6 2 12 -3 12 -10 0 -7 9
-30 20 -52 11 -22 20 -49 20 -61 0 -12 7 -25 16 -28 9 -4 14 -13 10 -21 -3 -8
-2 -15 3 -15 5 0 11 -22 15 -50 4 -27 11 -52 16 -55 6 -3 10 -27 10 -53 0 -26
7 -55 15 -65 11 -16 14 -89 15 -395 0 -228 4 -380 10 -386 6 -6 10 -33 10 -62
0 -34 5 -56 15 -64 8 -7 15 -23 15 -36 0 -12 5 -26 10 -29 6 -3 10 -17 10 -31
0 -13 5 -24 10 -24 6 0 10 -7 10 -15 0 -9 7 -18 16 -22 8 -3 13 -12 10 -20 -3
-7 3 -21 14 -30 11 -10 20 -23 20 -31 0 -14 40 -75 53 -80 4 -2 7 -10 7 -18 0
-8 16 -28 35 -45 32 -29 49 -79 27 -79 -5 0 -34 -25 -66 -55 -31 -30 -61 -55
-66 -55 -5 0 -42 -31 -82 -70 -40 -38 -79 -70 -86 -70 -7 0 -27 -16 -44 -36
-33 -37 -81 -67 -92 -57 -3 4 -6 15 -6 25 0 10 -4 18 -9 18 -5 0 -12 11 -15
25 -4 14 -11 25 -16 25 -6 0 -10 11 -10 24 0 13 -7 29 -15 36 -8 7 -15 23 -15
35 0 13 -7 25 -15 29 -8 3 -15 18 -15 33 0 15 -7 37 -15 47 -8 11 -15 32 -15
47 0 15 -7 29 -15 33 -9 3 -15 18 -15 36 0 20 -5 30 -15 30 -10 0 -15 10 -15
34 0 19 -4 38 -10 41 -5 3 -10 21 -10 40 0 20 -6 35 -15 39 -17 6 -22 116 -5
116 6 0 10 11 10 25 0 14 8 29 20 35 17 9 20 21 20 81 0 38 -6 84 -14 102 -13
32 -95 122 -117 129 -16 5 0 78 22 96 13 11 19 30 19 58 0 25 6 47 15 54 11 9
15 35 15 105 0 70 -4 96 -15 105 -9 8 -15 30 -15 57 0 28 -5 46 -14 49 -8 3
-17 17 -20 30 -8 31 -64 94 -83 94 -7 0 -16 7 -19 15 -6 15 -44 29 -104 39
-45 8 -171 -19 -186 -39 -6 -8 -15 -15 -21 -15 -5 0 -20 -18 -33 -40 -14 -22
-28 -40 -32 -40 -5 0 -8 -11 -8 -25 0 -16 -6 -25 -15 -25 -10 0 -15 -11 -15
-35 0 -20 -6 -37 -16 -43 -13 -7 -15 -25 -12 -105 2 -54 2 -97 0 -97 -2 0 -15
6 -30 14 -31 16 -167 14 -199 -2 -17 -10 -19 -4 -22 96 -1 59 -7 109 -12 110
-5 2 -9 15 -9 28 0 14 -7 27 -15 30 -8 4 -15 16 -15 28 0 25 -62 96 -85 96 -9
0 -18 7 -21 15 -9 21 -184 20 -184 -1 0 -8 -6 -14 -14 -14 -27 0 -103 -102
-111 -147 -3 -22 -13 -49 -20 -60 -21 -27 -21 -199 0 -207 10 -4 15 -20 15
-50 0 -25 5 -48 10 -51 6 -3 10 -15 10 -26 0 -11 6 -22 14 -25 8 -3 17 -21 21
-41 6 -31 3 -38 -26 -64 -18 -16 -39 -29 -46 -29 -7 0 -13 -9 -13 -20 0 -11
-3 -20 -8 -20 -11 0 -41 -61 -43 -90 -3 -35 11 -100 22 -100 5 0 9 -13 9 -30
0 -20 5 -30 15 -30 8 0 15 -9 15 -20 0 -10 9 -24 20 -30 21 -11 28 -64 10 -75
-5 -3 -10 -27 -10 -53 0 -26 -6 -56 -14 -67 -7 -11 -16 -41 -20 -67 -4 -27
-11 -48 -17 -48 -5 0 -9 -13 -9 -28 0 -15 -4 -32 -9 -38 -5 -5 -16 -34 -25
-64 -20 -68 -39 -110 -48 -110 -5 0 -8 -11 -8 -25 0 -14 -7 -28 -15 -31 -8 -4
-15 -16 -15 -29 0 -27 -28 -85 -41 -85 -5 0 -9 -13 -9 -30 0 -21 -5 -30 -16
-30 -10 0 -14 -6 -11 -15 4 -8 2 -17 -3 -20 -6 -4 -10 -15 -10 -26 0 -10 -4
-19 -10 -19 -5 0 -10 -7 -10 -15 0 -8 -4 -15 -10 -15 -5 0 -10 -8 -10 -18 0
-10 -7 -27 -15 -38 -8 -10 -15 -29 -15 -41 0 -13 -4 -23 -8 -23 -11 0 -62
-101 -62 -123 0 -9 -4 -17 -10 -17 -5 0 -10 -15 -10 -34 0 -21 -6 -36 -15 -40
-9 -3 -15 -18 -15 -40 0 -19 -4 -37 -9 -40 -5 -4 -12 -24 -16 -46 -4 -22 -11
-42 -16 -46 -5 -3 -9 -23 -9 -45 0 -22 -6 -50 -14 -62 -8 -12 -17 -46 -21 -74
-8 -60 -19 -68 -29 -21 -3 17 -13 40 -22 49 -9 10 -18 36 -21 58 -3 23 -10 41
-14 41 -5 0 -9 32 -9 70 0 40 -4 70 -10 70 -5 0 -10 14 -10 30 0 17 5 30 10
30 6 0 10 23 10 50 0 28 5 50 10 50 6 0 10 18 10 40 0 22 5 40 10 40 6 0 10
13 10 29 0 16 7 36 15 45 8 8 15 26 15 40 0 14 4 27 9 30 5 4 21 29 35 58 26
51 33 88 19 88 -15 -1 -73 -60 -73 -75 0 -8 -4 -15 -10 -15 -5 0 -10 -7 -10
-15 0 -9 -7 -18 -15 -21 -8 -4 -15 -14 -15 -24 0 -10 -7 -20 -15 -24 -8 -3
-15 -15 -15 -26 0 -11 -4 -20 -10 -20 -5 0 -10 -13 -10 -30 0 -20 -5 -30 -15
-30 -10 0 -15 -10 -15 -33 0 -18 -5 -38 -10 -43 -26 -26 -43 -275 -21 -297 6
-6 11 -37 11 -69 0 -32 4 -58 10 -58 6 0 10 -10 10 -23 0 -12 9 -30 20 -40 11
-9 20 -26 20 -37 0 -11 7 -23 15 -26 8 -4 15 -17 15 -30 0 -14 5 -30 10 -37 6
-7 20 -24 33 -38 12 -15 31 -39 42 -54 11 -16 78 -87 148 -159 200 -205 227
-234 227 -246 0 -6 10 -21 23 -33 13 -12 26 -30 30 -40 3 -9 11 -17 17 -17 5
0 10 -7 10 -15 0 -8 4 -15 8 -15 5 0 14 -16 22 -35 8 -19 17 -35 22 -35 4 0 8
-9 8 -19 0 -10 7 -21 15 -25 8 -3 15 -14 15 -25 0 -11 8 -24 17 -30 14 -7 18
-26 21 -85 5 -90 0 -112 -33 -149 -33 -37 -102 -48 -139 -21 -14 11 -26 25
-26 32 0 7 -6 15 -14 18 -8 3 -17 16 -20 30 -4 13 -11 24 -16 24 -6 0 -10 12
-10 26 0 17 -6 28 -20 31 -13 3 -20 14 -20 29 0 13 -4 24 -10 24 -5 0 -16 15
-25 34 -9 19 -25 42 -36 52 -10 9 -19 25 -19 36 0 10 -4 18 -10 18 -5 0 -10 9
-10 20 0 11 -7 20 -15 20 -9 0 -15 9 -15 25 0 14 -4 25 -10 25 -5 0 -10 6 -10
13 0 23 -25 67 -37 67 -7 0 -13 9 -13 20 0 24 -17 46 -96 124 -64 63 -95 86
-116 86 -6 0 -20 8 -30 17 -27 25 -194 25 -212 1 -7 -10 -25 -18 -40 -18 -14
0 -26 -5 -26 -11 0 -6 -12 -9 -27 -7 -20 2 -29 9 -31 26 -2 12 -10 22 -18 22
-8 0 -14 7 -14 15 0 8 -9 32 -20 52 -11 21 -20 51 -20 68 0 18 -8 38 -20 48
-19 16 -20 29 -20 207 0 153 3 192 14 196 7 3 16 27 20 54 4 27 11 52 16 55 6
3 10 19 10 36 0 16 5 29 10 29 6 0 10 14 10 30 0 20 5 30 15 30 10 0 15 11 15
35 0 19 5 35 10 35 6 0 10 7 10 15 0 8 9 24 20 35 11 11 20 29 20 39 0 10 7
21 15 25 8 3 15 17 15 31 0 16 6 25 15 25 8 0 15 8 15 18 0 11 9 27 20 37 11
10 20 25 20 34 0 8 13 27 28 41 16 14 51 59 77 100 27 41 53 77 57 78 4 2 8 7
8 12 0 5 15 24 33 43 17 19 46 54 62 77 17 23 38 46 48 51 9 5 17 16 17 24 0
8 19 34 43 57 23 24 48 55 55 69 8 14 25 39 38 54 13 15 24 36 24 45 0 10 7
20 15 24 8 3 15 15 15 26 0 11 5 20 10 20 6 0 10 9 10 20 0 11 5 20 10 20 6 0
10 13 10 29 0 16 6 31 15 35 9 3 15 18 15 40 0 21 6 36 15 40 10 3 15 19 15
44 0 21 6 44 12 50 19 19 31 152 30 330 -4 352 -3 421 3 537 5 88 11 122 21
128 9 5 14 25 14 55 0 26 6 56 14 67 7 11 17 31 21 45 12 43 30 80 37 80 5 0
8 16 8 35 0 24 5 35 15 35 8 0 15 7 15 15 0 8 9 23 20 32 11 10 20 25 20 35 0
10 4 18 10 18 5 0 17 15 26 33 20 39 142 157 164 157 8 0 28 14 44 30 16 17
35 30 43 30 7 0 13 5 13 10 0 6 9 10 20 10 11 0 23 7 26 15 4 9 19 15 35 15
18 0 29 5 29 14 0 8 16 16 42 19 24 3 44 11 46 16 2 6 20 11 40 11 21 1 51 7
67 15 44 20 333 20 382 0z m-2736 -345 l69 0 49 -50 c27 -27 54 -50 59 -50 6
0 12 -4 14 -10 2 -6 83 -7 233 -2 l230 8 34 -25 c19 -14 38 -28 42 -31 5 -3
11 -25 15 -48 l7 -42 -484 0 -484 -1 -29 -25 c-15 -14 -25 -28 -21 -32 6 -6
421 -12 843 -12 l172 0 0 -279 c0 -258 -1 -280 -18 -285 -9 -3 -22 -16 -27
-28 l-10 -23 -475 -3 c-261 -1 -490 0 -507 3 -19 3 -33 12 -33 20 0 8 -9 19
-20 25 -20 10 -20 21 -20 435 0 277 3 425 10 425 6 0 10 10 10 22 0 21 1 21
137 15 75 -4 167 -7 204 -7z m4642 -14 c9 -10 17 -22 17 -26 0 -4 9 -10 20
-13 11 -3 20 -12 20 -19 0 -33 50 -41 235 -39 100 1 202 4 228 6 27 3 47 1 47
-5 0 -6 6 -10 14 -10 27 0 68 -50 73 -90 l6 -40 -489 0 c-478 0 -490 0 -507
-20 -24 -28 -21 -40 11 -42 15 -1 241 -2 502 -2 l475 -1 -2 -282 -1 -283 -30
-30 -30 -30 -491 0 c-297 0 -491 4 -491 9 0 5 -9 13 -20 16 -11 3 -20 14 -20
24 0 9 -5 22 -12 29 -8 8 -10 120 -9 414 2 337 5 404 17 411 8 4 14 14 14 22
0 7 4 15 10 17 5 2 97 3 202 3 177 0 194 -2 211 -19z m-3230 -442 c20 -4 37
-11 37 -16 0 -5 -9 -29 -20 -54 l-20 -44 -264 0 -264 0 -4 53 c-3 28 -3 55 -1
60 5 8 482 9 536 1z m2640 -39 c-1 -22 -2 -48 -2 -58 -1 -17 -15 -18 -191 -16
-104 1 -190 4 -190 8 0 3 -3 30 -6 59 l-6 52 198 -2 199 -3 -2 -40z m-1989
-240 c3 -8 11 -15 18 -15 7 0 19 -15 27 -32 8 -18 18 -35 22 -38 5 -3 11 -42
15 -86 6 -70 4 -82 -10 -87 -9 -4 -16 -13 -16 -21 0 -8 -9 -18 -20 -21 -11 -3
-20 -11 -20 -16 0 -5 -7 -9 -15 -9 -8 0 -15 -7 -15 -15 0 -24 -50 -18 -75 9
-39 42 -53 94 -50 184 2 46 5 85 6 87 2 2 18 20 34 39 33 38 88 50 99 21z
m808 -5 c12 -11 28 -20 35 -20 7 0 13 -8 13 -19 0 -10 7 -32 15 -47 20 -39 20
-157 0 -174 -8 -7 -15 -19 -15 -27 0 -7 -8 -23 -18 -33 -21 -23 -82 -39 -82
-21 0 6 -6 11 -13 11 -20 0 -77 30 -98 51 -11 11 -19 30 -19 43 0 14 -4 27 -8
30 -9 5 13 116 29 148 5 10 9 23 9 30 0 20 51 46 93 47 25 1 45 -6 59 -19z
m-350 -295 c21 -4 43 -13 49 -21 6 -8 24 -14 40 -14 18 0 34 -8 41 -20 7 -11
20 -20 30 -20 27 0 48 -11 48 -26 0 -9 11 -14 30 -14 19 0 34 -7 42 -20 8 -13
24 -20 44 -20 18 0 38 -8 49 -20 10 -11 29 -20 42 -20 13 0 39 -11 57 -25 18
-14 38 -25 44 -25 37 0 80 -151 47 -164 -9 -3 -15 -12 -13 -19 4 -15 -91 -117
-109 -117 -7 0 -13 -4 -13 -10 0 -5 -11 -10 -25 -10 -14 0 -25 -5 -25 -11 0
-5 -15 -17 -32 -25 -38 -17 -67 -34 -86 -51 -7 -7 -20 -13 -28 -13 -14 0 -23
-6 -57 -36 -7 -6 -25 -14 -42 -18 -16 -4 -35 -16 -43 -27 -7 -11 -25 -19 -41
-19 -15 0 -36 -7 -47 -15 -28 -21 -219 -21 -228 0 -3 8 -17 15 -31 15 -14 0
-25 4 -25 8 0 5 -16 17 -35 28 -19 10 -35 22 -35 26 0 5 -7 8 -15 8 -9 0 -18
7 -22 15 -3 9 -17 22 -32 29 -14 8 -46 33 -71 55 -25 22 -49 41 -53 41 -9 0
-14 4 -84 66 -29 26 -53 55 -53 65 0 11 -4 19 -10 19 -5 0 -10 21 -10 47 0 42
4 51 38 80 20 18 41 33 45 33 4 0 15 6 23 13 42 35 68 52 100 66 12 5 39 26
60 45 21 20 45 36 52 36 6 0 12 5 12 10 0 6 7 10 15 10 9 0 18 7 21 15 4 8 12
15 19 15 7 0 37 11 67 25 46 22 63 25 133 21 44 -2 97 -7 117 -11z m-2267 -7
c2 -2 5 -62 6 -133 1 -121 0 -130 -20 -143 -26 -18 -88 -8 -93 15 -2 8 -2 73
0 142 l3 127 50 -2 c28 -1 52 -4 54 -6z m4398 -209 c31 -7 57 -16 57 -20 0 -5
9 -9 20 -9 11 0 20 -7 20 -15 0 -7 7 -18 15 -23 12 -6 8 -12 -20 -25 -20 -9
-38 -24 -41 -32 -4 -8 -12 -15 -18 -15 -7 0 -30 -17 -52 -38 -21 -21 -44 -41
-51 -43 -7 -2 -37 -24 -67 -49 -54 -44 -55 -46 -56 -97 0 -29 5 -53 10 -53 6
0 10 -12 10 -27 0 -21 16 -43 65 -90 36 -35 73 -63 85 -63 11 0 20 -7 20 -15
0 -8 6 -15 14 -15 8 0 16 7 20 15 3 8 12 15 20 15 7 0 16 7 20 15 3 8 15 15
26 15 11 0 20 5 20 10 0 6 8 14 18 17 9 4 31 22 48 40 17 18 38 33 47 33 8 0
17 7 21 15 3 8 12 15 21 15 8 0 15 6 15 13 0 22 57 49 78 38 31 -17 44 -157
17 -185 -8 -8 -15 -32 -15 -55 0 -23 -4 -41 -10 -41 -5 0 -10 -6 -10 -14 0 -7
-9 -25 -20 -39 -11 -14 -20 -32 -20 -41 0 -8 -13 -23 -30 -33 -16 -9 -30 -21
-30 -24 0 -12 -84 -89 -97 -89 -7 0 -13 -4 -13 -10 0 -5 -11 -10 -23 -10 -13
0 -38 -7 -55 -16 -50 -24 -302 -19 -302 7 0 16 -77 10 -84 -6 -3 -8 -14 -15
-25 -15 -11 0 -31 -15 -45 -33 -14 -18 -45 -45 -70 -61 -25 -16 -46 -33 -46
-37 0 -5 -6 -9 -13 -9 -8 0 -27 -15 -44 -32 -43 -47 -81 -78 -96 -78 -6 0 -40
-26 -73 -58 -34 -31 -80 -68 -103 -82 -22 -14 -41 -31 -41 -37 0 -7 -4 -13 -8
-13 -5 0 -22 -13 -38 -30 -16 -16 -35 -30 -42 -30 -7 0 -25 -13 -40 -29 -15
-16 -56 -52 -91 -79 l-64 -50 2 -76 c1 -42 -2 -76 -7 -76 -5 0 -12 -22 -16
-49 -3 -27 -15 -60 -26 -74 -11 -14 -20 -30 -20 -36 0 -6 -4 -11 -10 -11 -5 0
-10 -9 -10 -20 0 -11 -7 -20 -15 -20 -8 0 -15 -7 -15 -15 0 -8 -7 -15 -15 -15
-8 0 -15 -4 -15 -10 0 -5 -5 -10 -10 -10 -6 0 -29 -12 -52 -27 -22 -15 -69
-35 -103 -44 -57 -14 -68 -14 -146 1 -67 13 -85 20 -88 35 -2 10 5 25 15 32
21 14 50 37 109 86 22 19 48 37 58 40 9 4 17 11 17 17 0 5 7 10 15 10 8 0 15
7 15 15 0 8 5 15 12 15 9 0 9 3 0 12 -7 7 -12 34 -12 60 0 34 -5 50 -15 54 -8
4 -15 11 -15 17 0 6 -32 42 -71 79 -61 59 -76 68 -107 68 -28 0 -42 -6 -56
-25 -10 -14 -25 -25 -32 -25 -8 0 -22 -9 -31 -20 -10 -11 -23 -20 -30 -20 -6
0 -16 -6 -20 -13 -4 -7 -27 -28 -51 -46 -58 -45 -72 -33 -72 60 0 38 4 69 9
69 5 0 12 18 16 40 4 22 11 40 16 40 5 0 9 9 9 20 0 11 5 20 10 20 6 0 13 7
17 17 9 22 69 83 82 83 7 0 14 7 17 15 4 8 17 15 30 15 12 0 27 6 31 14 4 7
22 16 38 18 17 3 52 11 78 19 38 11 52 11 67 1 11 -7 31 -12 44 -12 14 0 28
-4 31 -10 3 -5 22 -10 41 -10 33 0 54 14 126 83 10 9 20 17 23 17 7 0 46 33
133 113 23 20 46 37 52 37 5 0 32 23 58 50 27 28 54 50 60 50 7 0 12 5 12 10
0 6 4 10 10 10 5 0 35 25 66 55 31 30 69 60 85 67 16 7 29 19 29 25 0 7 6 13
13 13 6 0 28 18 49 39 20 21 51 47 68 57 81 47 136 124 98 137 -18 5 -17 189
0 195 7 2 12 17 12 34 0 18 11 45 25 64 14 18 25 37 25 42 0 14 92 113 115
123 32 14 59 33 68 47 4 6 17 12 27 12 11 0 20 4 20 9 0 25 183 38 273 20z
m-3892 -139 c79 -77 148 -140 152 -140 8 0 50 -41 136 -133 l54 -58 -30 -32
c-119 -123 -335 -337 -341 -337 -5 0 -32 -23 -61 -52 -62 -62 -69 -57 -69 46
l0 71 -463 3 c-457 2 -464 3 -481 23 -16 19 -18 47 -18 265 0 244 2 263 37
301 9 10 108 13 467 13 l456 0 0 85 c0 47 4 85 8 85 5 0 74 -63 153 -140z
m2279 -291 c0 -16 5 -29 10 -29 6 0 10 -20 10 -45 0 -30 5 -47 14 -51 8 -3 17
-23 21 -45 4 -21 11 -41 16 -45 5 -3 9 -18 9 -34 0 -15 6 -30 13 -33 7 -2 18
-25 25 -51 6 -25 16 -46 22 -46 5 0 10 -14 10 -30 0 -17 6 -33 14 -36 8 -3 17
-21 20 -40 4 -19 11 -34 15 -34 5 0 11 -13 14 -29 3 -16 13 -36 22 -44 8 -9
18 -30 21 -47 6 -26 1 -36 -32 -68 l-38 -37 -155 0 c-114 0 -155 -3 -158 -12
-3 -7 -13 -13 -24 -13 -18 0 -99 -37 -109 -50 -3 -4 -13 -10 -23 -13 -11 -4
-21 -16 -24 -27 -3 -11 -10 -20 -15 -20 -15 0 -75 -66 -83 -90 -3 -11 -11 -20
-16 -20 -5 0 -9 -9 -9 -19 0 -11 -7 -26 -15 -34 -23 -24 -54 -210 -37 -230 6
-6 13 -29 17 -49 15 -82 100 -132 169 -99 20 9 35 22 36 29 0 6 7 12 15 12 7
0 18 6 22 13 4 7 26 26 48 43 22 16 42 33 44 37 2 5 14 12 28 18 20 7 29 4 51
-18 29 -29 62 -74 62 -85 0 -5 -7 -8 -15 -8 -8 0 -15 -7 -15 -15 0 -8 -5 -15
-11 -15 -6 0 -23 -12 -39 -27 -47 -47 -92 -83 -104 -83 -22 -1 -60 -52 -63
-88 -4 -35 22 -102 39 -102 5 0 8 -7 8 -15 0 -8 6 -15 14 -15 8 0 35 -9 61
-20 64 -27 186 -36 280 -19 41 7 75 17 75 21 0 4 11 8 25 8 14 0 25 5 25 10 0
6 7 10 15 10 9 0 18 7 21 15 4 8 11 15 17 15 16 0 147 137 147 154 0 7 6 19
14 25 7 6 16 29 20 51 3 22 11 40 16 40 6 0 10 21 10 46 0 40 16 74 34 74 3 0
6 -29 6 -65 0 -37 4 -65 10 -65 6 0 10 -63 10 -169 0 -137 -3 -172 -15 -185
-8 -8 -15 -23 -15 -34 0 -11 -7 -22 -15 -26 -8 -3 -15 -17 -15 -31 0 -14 -4
-25 -10 -25 -5 0 -10 -6 -10 -12 -1 -30 -38 -58 -77 -58 -25 0 -47 -7 -61 -20
-12 -11 -25 -20 -30 -20 -12 0 -72 -67 -72 -80 0 -5 -4 -10 -10 -10 -5 0 -10
-11 -10 -25 0 -14 -4 -25 -9 -25 -6 0 -15 -27 -22 -60 -6 -33 -16 -63 -20 -66
-5 -3 -9 -36 -9 -73 0 -42 -6 -80 -15 -97 -10 -20 -15 -60 -15 -131 0 -57 -4
-103 -9 -103 -5 0 -19 -16 -32 -35 -13 -19 -28 -35 -32 -35 -4 0 -20 -11 -35
-25 -15 -14 -39 -31 -54 -38 -16 -6 -28 -18 -28 -24 0 -7 -9 -13 -20 -13 -11
0 -20 -4 -20 -9 0 -5 -21 -20 -47 -33 -27 -13 -53 -29 -58 -36 -6 -7 -15 -13
-20 -12 -25 5 -45 -1 -45 -15 0 -11 -11 -15 -38 -15 -21 0 -42 -4 -48 -10 -5
-5 -33 -10 -62 -11 -36 -2 -52 -6 -52 -16 0 -21 -288 -19 -296 2 -5 11 -22 15
-65 15 -32 0 -59 4 -59 9 0 5 -14 13 -32 16 -17 4 -38 14 -46 21 -7 8 -22 14
-33 14 -10 0 -19 5 -19 10 0 6 -11 10 -25 10 -14 0 -25 4 -25 9 0 5 -16 16
-35 25 -19 9 -35 20 -35 25 0 4 -15 13 -32 21 -18 7 -45 27 -61 45 l-27 33 30
14 c16 7 30 18 30 24 0 6 7 17 15 24 8 7 15 22 15 34 0 12 5 27 12 34 7 7 12
37 12 67 0 30 -5 60 -12 67 -7 7 -12 29 -12 50 0 21 -4 38 -8 38 -4 0 -14 17
-21 38 -8 20 -21 48 -31 62 -9 14 -23 40 -31 58 -8 17 -20 32 -26 32 -7 0 -13
9 -13 19 0 10 -7 21 -15 25 -8 3 -15 12 -15 21 0 8 -4 15 -10 15 -5 0 -10 7
-10 15 0 9 -7 18 -15 21 -8 4 -15 13 -15 20 0 8 -7 17 -15 20 -8 4 -15 12 -15
20 0 8 -8 22 -17 32 -47 50 -53 63 -53 117 0 30 5 55 10 55 6 0 10 9 10 19 0
19 28 80 41 91 4 3 10 20 14 38 3 17 11 32 16 32 5 0 9 6 9 13 0 7 9 19 20 27
11 8 20 20 20 27 0 12 124 143 135 143 2 0 18 13 35 29 18 16 42 33 53 39 56
26 96 42 106 42 6 0 11 4 11 9 0 5 14 11 30 13 20 3 30 0 30 -8 0 -7 5 -14 11
-16 7 -2 11 -26 10 -61 0 -31 3 -57 8 -57 4 0 24 16 44 35 20 19 40 35 45 35
5 0 27 18 50 40 22 22 45 40 51 40 6 0 11 5 11 10 0 6 4 10 8 10 10 0 102 83
102 92 0 4 -13 9 -30 13 -16 4 -30 10 -30 15 0 4 -22 14 -50 21 -27 7 -50 16
-50 21 0 4 -11 8 -25 8 -14 0 -28 7 -31 15 -4 8 -17 15 -30 15 -15 0 -24 6
-24 15 0 10 -10 15 -28 15 -15 0 -33 5 -39 11 -7 7 -18 9 -26 6 -18 -7 -11
-67 10 -84 8 -6 13 -23 11 -40 -3 -26 -7 -28 -50 -31 -27 -2 -48 -7 -48 -12 0
-5 -13 -11 -30 -15 -16 -4 -30 -11 -30 -16 0 -5 -9 -9 -20 -9 -11 0 -23 -7
-26 -15 -4 -8 -17 -15 -30 -15 -12 0 -27 -6 -31 -13 -4 -8 -15 -18 -24 -23
-15 -8 -82 -63 -128 -104 -9 -8 -29 -33 -46 -55 -16 -22 -35 -44 -42 -48 -7
-4 -13 -16 -13 -27 0 -10 -9 -22 -20 -25 -13 -4 -20 -15 -20 -31 0 -14 -7 -27
-15 -30 -8 -4 -15 -14 -15 -24 0 -10 -7 -25 -15 -34 -8 -8 -15 -24 -15 -35 0
-11 -4 -23 -10 -26 -5 -3 -10 -14 -10 -23 0 -33 -15 -45 -39 -33 -11 7 -21 18
-21 26 0 8 -5 15 -11 15 -15 0 -40 27 -61 66 -20 37 -26 189 -9 222 12 24 33
126 38 190 3 33 9 52 18 52 13 0 25 30 25 66 0 12 7 27 15 34 8 7 15 23 15 36
0 13 5 24 10 24 6 0 10 14 10 30 0 18 6 33 15 36 8 4 15 17 15 31 0 13 7 31
15 39 8 9 15 24 15 34 0 10 7 20 15 24 8 3 15 15 15 26 0 11 5 20 10 20 6 0
10 9 10 21 0 11 7 27 15 36 9 8 19 28 22 44 3 16 12 29 19 29 9 0 14 12 14 33
0 20 9 44 20 57 11 13 20 31 20 41 0 10 5 21 10 24 6 3 10 17 10 31 0 15 6 24
15 24 9 0 15 9 15 23 0 12 7 31 15 41 8 11 15 32 15 48 0 15 5 28 10 28 6 0
10 11 10 25 0 14 5 25 10 25 6 0 10 18 10 40 0 22 5 40 10 40 6 0 10 15 10 34
0 18 7 39 15 46 8 7 15 25 15 40 0 46 12 91 25 97 13 4 137 -80 143 -98 2 -5
10 -9 18 -9 8 0 14 -4 14 -10 0 -5 11 -12 25 -16 14 -3 25 -10 25 -15 0 -5 9
-9 20 -9 11 0 20 -4 20 -10 0 -5 7 -10 15 -10 9 0 18 -7 21 -15 4 -8 18 -15
34 -15 15 0 33 -7 40 -15 10 -12 38 -15 131 -15 99 0 119 3 119 15 0 11 11 15
36 15 19 0 42 7 50 15 9 8 24 15 34 15 10 0 20 7 24 15 3 8 17 15 31 15 16 0
25 6 25 15 0 8 6 15 14 15 7 0 19 7 26 15 7 8 18 15 26 15 13 0 74 37 104 62
8 7 30 18 50 25 19 7 41 21 49 32 17 27 31 18 31 -20z m-2781 -463 c8 -9 10
-74 9 -210 l-3 -196 203 0 c177 0 203 -2 209 -16 3 -9 1 -19 -4 -23 -6 -3 -14
-19 -20 -36 l-10 -30 -234 -2 c-136 -2 -240 1 -249 7 -13 8 -16 49 -18 252 -3
221 -2 244 14 255 24 17 89 17 103 -1z m4041 -270 c0 -13 7 -26 15 -30 8 -3
15 -15 15 -26 0 -11 7 -20 15 -20 10 0 15 -10 15 -30 0 -17 6 -33 14 -36 8 -3
17 -16 20 -30 4 -13 11 -24 16 -24 10 0 29 -38 26 -50 0 -3 9 -18 22 -34 12
-16 22 -37 22 -47 0 -11 5 -19 10 -19 6 0 10 -13 10 -29 0 -16 6 -31 14 -34 7
-3 16 -23 20 -45 3 -23 13 -47 21 -56 10 -10 15 -35 15 -80 0 -36 5 -68 10
-71 6 -3 10 -52 10 -110 0 -58 -4 -107 -10 -110 -5 -3 -10 -35 -10 -71 0 -50
-3 -64 -15 -64 -10 0 -15 -10 -15 -29 0 -31 -34 -104 -62 -133 -10 -10 -18
-27 -18 -38 0 -11 -4 -20 -9 -20 -5 0 -12 -8 -15 -18 -4 -11 -18 -25 -31 -32
-14 -7 -25 -22 -25 -33 0 -18 -5 -19 -61 -13 -38 5 -65 3 -73 -3 -7 -6 -31
-12 -53 -14 -22 -1 -47 -7 -54 -13 -8 -5 -26 -16 -41 -24 -16 -7 -28 -17 -28
-22 0 -4 -11 -8 -25 -8 -14 0 -25 -4 -25 -9 0 -14 -99 -58 -142 -64 -82 -12
-188 17 -188 52 0 6 -10 19 -21 30 -19 18 -21 28 -17 92 3 39 9 74 14 78 5 3
16 20 24 36 8 17 32 46 53 66 20 19 37 40 37 46 0 6 7 13 15 17 8 3 15 12 15
21 0 8 5 15 10 15 6 0 10 7 10 15 0 8 7 15 15 15 8 0 15 7 15 15 0 8 7 15 15
15 8 0 15 7 15 15 0 8 4 15 9 15 5 0 22 25 36 55 15 30 31 55 36 55 5 0 9 9 9
20 0 11 5 20 10 20 6 0 10 11 10 25 0 14 4 25 8 25 14 0 41 103 45 170 5 86
-10 264 -23 268 -5 2 -10 17 -10 34 0 19 -8 38 -22 50 l-23 20 25 19 c14 11
36 28 48 39 13 11 27 20 31 20 4 0 15 14 24 30 10 17 24 30 31 30 7 0 31 18
54 39 40 38 58 47 95 50 12 1 17 -6 17 -23z m-386 -298 c3 -13 8 -41 11 -62 5
-29 9 -36 16 -25 5 9 9 -31 9 -108 0 -76 -4 -123 -10 -123 -5 0 -10 -18 -10
-40 0 -27 -7 -48 -20 -62 -11 -12 -20 -28 -20 -35 0 -19 -53 -92 -67 -93 -7 0
-15 -11 -19 -25 -3 -14 -10 -25 -15 -25 -5 0 -9 -8 -9 -17 0 -15 -2 -16 -10
-3 -5 8 -13 13 -17 10 -4 -3 -9 64 -11 148 -2 124 -5 154 -17 158 -11 4 -15
22 -15 59 0 30 -4 57 -10 60 -16 10 -12 65 5 65 15 0 43 21 97 73 16 15 31 27
34 27 3 0 14 9 26 20 28 26 47 25 52 -2z m-2894 -988 c0 -5 12 -10 28 -10 17
-1 36 -11 52 -30 13 -17 30 -30 37 -30 7 0 25 -18 39 -40 15 -22 30 -40 33
-40 4 0 15 -20 25 -45 11 -25 23 -45 28 -45 4 0 8 -7 8 -15 0 -9 7 -18 15 -21
8 -4 15 -16 15 -28 0 -12 9 -29 20 -39 11 -9 20 -26 20 -36 0 -11 6 -24 13
-28 6 -4 28 -39 47 -77 19 -37 41 -70 48 -73 6 -3 12 -11 12 -19 0 -8 8 -22
18 -32 10 -10 26 -34 35 -55 10 -20 22 -37 26 -37 5 0 11 -10 15 -23 3 -13 17
-36 31 -52 15 -15 38 -45 52 -66 14 -22 29 -39 34 -39 4 0 10 -8 13 -17 4 -10
20 -33 36 -52 17 -18 30 -40 30 -47 0 -7 6 -17 14 -21 19 -11 56 -79 56 -102
0 -10 7 -21 15 -25 12 -4 15 -29 15 -131 0 -104 -2 -125 -15 -125 -11 0 -15
-11 -15 -35 0 -22 -6 -38 -15 -41 -8 -4 -15 -13 -15 -22 0 -8 -28 -42 -62 -74
-45 -41 -71 -58 -90 -58 -18 0 -28 -5 -28 -15 0 -13 -22 -15 -135 -15 -113 0
-135 2 -135 15 0 11 -12 15 -45 15 -25 0 -45 4 -45 9 0 5 -13 12 -30 16 -16 4
-32 11 -35 16 -4 5 -17 9 -31 9 -14 0 -27 7 -30 15 -4 8 -17 15 -30 15 -13 0
-24 5 -24 10 0 6 -9 10 -19 10 -11 0 -22 4 -26 10 -3 5 -12 7 -20 4 -8 -4 -18
1 -21 10 -3 9 -17 16 -29 16 -13 0 -27 5 -30 10 -3 6 -19 10 -36 10 -16 0 -29
4 -29 9 0 5 -31 12 -70 16 -38 4 -70 10 -70 15 0 4 -39 10 -87 14 -48 3 -90
10 -93 15 -3 4 -31 11 -64 15 -32 3 -68 13 -79 21 -12 8 -31 15 -43 15 -12 0
-24 7 -28 15 -3 8 -13 15 -22 15 -24 0 -84 70 -84 98 0 12 -4 22 -10 22 -6 0
-10 28 -10 65 0 37 4 65 10 65 6 0 10 18 10 40 0 22 4 40 9 40 16 0 23 33 27
127 3 68 1 100 -10 121 -16 31 -24 252 -11 287 4 11 33 44 63 73 40 37 64 52
83 52 18 0 32 7 39 20 8 14 17 19 30 15 10 -3 25 1 33 10 9 8 29 15 45 15 42
0 107 36 164 92 26 26 48 49 48 53 0 11 94 95 107 95 7 0 13 5 13 10 0 6 10
10 23 10 12 0 29 5 37 10 20 13 100 13 100 0z m2530 -95 c0 -78 102 -205 165
-205 14 0 25 -4 25 -10 0 -6 32 -10 75 -10 43 0 75 4 75 10 0 6 18 10 40 10
27 0 43 5 46 15 4 8 16 15 29 15 13 0 25 7 29 15 3 8 15 15 26 15 11 0 23 7
26 15 4 8 14 15 23 15 10 0 27 9 39 20 14 13 35 20 62 20 22 0 40 5 40 10 0
17 97 12 104 -5 3 -8 15 -15 26 -15 11 0 20 -5 20 -10 0 -6 11 -21 25 -34 14
-13 25 -30 25 -37 0 -8 9 -22 20 -32 15 -12 20 -29 20 -62 0 -25 4 -45 9 -45
6 0 13 -20 17 -45 3 -25 10 -48 15 -51 5 -3 9 -13 9 -22 0 -10 8 -25 18 -33
24 -23 52 -58 52 -67 0 -4 25 -33 55 -64 30 -31 55 -63 55 -71 0 -8 7 -17 15
-21 8 -3 15 -16 15 -28 0 -13 7 -32 15 -42 17 -22 20 -66 5 -66 -5 0 -10 -13
-10 -29 0 -16 -7 -34 -15 -41 -8 -7 -15 -17 -15 -22 0 -12 -42 -58 -53 -58 -5
0 -23 -11 -41 -25 -18 -14 -40 -25 -49 -25 -10 0 -17 -4 -17 -10 0 -5 -16 -17
-35 -26 -19 -9 -35 -20 -35 -25 0 -5 -10 -9 -22 -9 -13 0 -32 -7 -42 -15 -11
-8 -27 -15 -37 -15 -9 0 -19 -7 -23 -15 -3 -8 -15 -15 -26 -15 -11 0 -23 -7
-26 -15 -4 -8 -16 -15 -28 -15 -12 0 -28 -9 -36 -20 -8 -11 -18 -20 -23 -20
-8 0 -108 -71 -140 -99 -9 -9 -25 -23 -35 -32 -9 -8 -39 -33 -67 -55 -27 -21
-63 -51 -80 -66 -16 -16 -35 -28 -41 -28 -6 0 -21 -11 -34 -25 -13 -14 -34
-25 -47 -25 -13 0 -23 -4 -23 -10 0 -5 -8 -10 -17 -10 -10 0 -26 -6 -35 -14
-12 -9 -56 -12 -156 -11 -117 1 -142 4 -156 18 -10 9 -24 17 -32 17 -8 0 -14
5 -14 10 0 6 -6 10 -14 10 -19 0 -116 109 -116 131 0 9 -7 19 -15 23 -8 3 -15
16 -15 30 0 14 -5 28 -10 31 -7 4 -10 55 -9 136 1 103 4 131 16 138 9 4 17 28
20 54 3 26 10 47 14 47 5 0 9 15 9 34 0 21 6 36 15 40 11 4 15 20 15 55 0 28
5 51 11 53 7 2 14 26 16 53 3 28 9 54 14 59 5 6 9 39 9 74 0 35 7 78 14 95 8
18 17 66 21 107 3 41 8 108 11 148 3 39 10 72 15 72 5 0 9 9 9 19 0 11 7 26
15 35 8 8 15 24 15 36 0 11 7 23 15 26 8 4 15 14 15 23 0 19 46 49 78 50 19 1
22 -4 22 -34z m-385 -797 c-4 -18 -10 -35 -14 -38 -14 -11 -31 -63 -31 -93 0
-18 -4 -37 -9 -42 -5 -6 -12 -43 -15 -83 -2 -40 -9 -79 -15 -85 -19 -23 -15
-152 5 -165 6 -4 13 -15 17 -24 6 -16 -2 -18 -78 -18 -50 0 -85 4 -85 10 0 6
-33 10 -80 10 -60 0 -82 4 -86 14 -4 9 -30 17 -75 21 -38 4 -69 11 -69 16 0
12 -204 11 -216 -1 -5 -5 -39 -13 -74 -16 -36 -4 -68 -12 -71 -17 -4 -5 -41
-12 -83 -15 -42 -2 -76 -9 -76 -13 0 -5 -39 -9 -86 -9 l-86 0 9 33 c13 54 10
290 -4 295 -7 2 -13 17 -13 33 0 16 -4 29 -10 29 -5 0 -10 7 -10 15 0 8 -4 15
-10 15 -5 0 -10 7 -10 15 0 8 -4 15 -10 15 -5 0 -10 6 -10 13 0 7 -9 23 -21
36 -31 33 -16 37 24 7 19 -14 41 -26 49 -26 9 0 18 -7 22 -15 3 -8 12 -15 21
-15 8 0 15 -4 15 -9 0 -5 18 -12 40 -16 22 -4 40 -10 40 -15 0 -4 18 -10 39
-14 22 -3 41 -11 43 -16 2 -6 29 -14 61 -17 35 -3 57 -11 57 -18 0 -29 397
-27 421 2 6 7 29 13 49 13 21 0 51 7 67 14 41 22 66 29 86 27 10 -1 17 4 17
13 0 11 9 16 30 16 17 0 30 3 30 8 0 4 9 12 19 17 62 32 121 69 121 77 0 4 5
8 10 8 6 0 20 9 32 20 29 27 31 26 23 -12z"/>
<path d="M6693 5250 c-13 -5 -23 -14 -23 -20 0 -5 -7 -10 -15 -10 -24 0 -18
-19 10 -32 22 -10 29 -8 54 16 43 41 28 68 -26 46z"/>
<path d="M6913 5243 l-23 -15 38 -28 c26 -19 41 -24 50 -17 14 11 16 37 3 37
-5 0 -11 9 -14 20 -6 24 -24 25 -54 3z"/>
<path d="M7330 5021 c0 -6 -10 -11 -23 -11 -12 0 -30 -9 -40 -20 -9 -11 -24
-20 -32 -20 -8 0 -15 -4 -15 -10 0 -5 -16 -16 -35 -24 -19 -8 -35 -20 -35 -25
0 -6 -9 -11 -20 -11 -11 0 -20 -3 -20 -7 0 -12 -51 -33 -77 -33 -14 0 -23 -6
-23 -15 0 -11 -12 -15 -45 -15 -31 0 -47 -5 -51 -15 -5 -12 -26 -15 -105 -15
-54 0 -99 4 -99 9 0 5 -15 12 -32 16 -37 7 -101 36 -106 48 -2 4 -10 7 -18 7
-8 0 -17 7 -20 15 -4 8 -12 15 -20 15 -8 0 -14 5 -14 10 0 6 -7 10 -15 10 -8
0 -15 5 -15 10 0 6 -5 10 -11 10 -6 0 -25 16 -43 36 -29 32 -36 36 -64 29 -34
-7 -41 -25 -18 -47 42 -41 87 -78 94 -78 4 0 21 -12 38 -28 16 -15 43 -34 59
-42 17 -8 32 -17 35 -20 11 -11 78 -39 133 -56 63 -19 218 -15 225 5 2 6 17
11 33 11 16 0 29 5 29 10 0 6 18 10 40 10 22 0 40 3 40 8 0 4 15 13 33 20 17
7 39 18 47 23 8 5 30 17 48 26 17 9 32 20 32 25 0 4 8 8 19 8 10 0 24 7 31 15
7 8 20 15 30 15 10 0 20 7 24 15 3 8 10 15 16 15 20 0 52 38 48 57 -3 19 -58
33 -58 14z"/>
<path d="M4201 4811 c-6 -11 -11 -79 -11 -157 l0 -137 41 6 c23 3 49 1 59 -5
12 -8 27 -6 56 8 21 10 42 23 46 28 4 6 8 41 8 77 0 56 -3 69 -24 88 -20 19
-33 22 -78 19 l-53 -3 -3 37 c-4 47 -26 68 -41 39z m136 -131 c3 -11 9 -20 14
-20 18 0 8 -56 -14 -81 -18 -21 -28 -25 -54 -22 -29 5 -33 9 -35 37 -5 90 3
106 55 106 21 0 30 -6 34 -20z"/>
<path d="M5013 4798 c-19 -11 -33 -28 -33 -39 0 -10 -4 -19 -10 -19 -14 0 -12
-30 3 -35 8 -4 13 -29 14 -70 2 -78 9 -105 29 -105 8 0 14 -4 14 -10 0 -5 11
-10 25 -10 20 0 25 5 25 25 0 16 -6 25 -15 25 -12 0 -15 14 -15 65 0 54 3 66
20 75 26 14 25 27 -1 35 -18 6 -20 12 -15 46 7 44 4 45 -41 17z"/>
<path d="M4478 4713 c-14 -16 -23 -34 -21 -40 3 -7 0 -13 -6 -13 -6 0 -11 -13
-11 -30 0 -16 5 -30 10 -30 6 0 10 -10 10 -23 0 -54 125 -78 175 -34 34 30 44
113 19 156 -20 33 -39 41 -105 41 -37 0 -50 -5 -71 -27z m120 -19 c16 -11 22
-25 22 -55 0 -63 -13 -79 -65 -79 l-45 0 0 63 c0 36 5 68 12 75 17 17 49 15
76 -4z"/>
<path d="M4765 4730 c-3 -5 -15 -10 -26 -10 -15 0 -19 -7 -20 -32 -3 -69 3
-133 13 -137 6 -2 18 -11 28 -21 19 -19 86 -25 96 -9 3 5 15 9 28 9 18 0 26 9
36 40 7 22 17 40 21 40 12 0 -17 90 -37 111 -13 15 -31 19 -75 19 -32 0 -61
-4 -64 -10z m106 -90 c-1 -30 -8 -61 -13 -67 -14 -17 -63 -16 -77 1 -16 19
-17 77 -2 104 10 19 19 23 54 20 l42 -3 -4 -55z"/>
<path d="M6856 3053 c-51 -6 -66 -22 -73 -83 -6 -49 -7 -50 -38 -50 -20 0 -35
-6 -39 -15 -5 -15 -56 -22 -56 -7 0 11 -64 52 -81 52 -20 0 -119 -94 -119
-113 0 -9 13 -30 29 -48 36 -39 44 -65 25 -83 -8 -8 -14 -22 -14 -31 0 -40
-19 -55 -70 -55 -70 0 -81 -15 -77 -103 l2 -72 48 -3 c26 -2 47 -7 47 -11 0
-4 11 -13 25 -19 19 -9 25 -19 25 -42 0 -20 5 -30 15 -30 24 0 17 -37 -12 -71
-35 -38 -47 -78 -27 -86 8 -3 14 -10 14 -15 0 -13 43 -51 77 -69 17 -9 26 -10
31 -2 23 36 132 69 132 40 0 -7 15 -17 33 -22 27 -9 32 -15 35 -45 2 -19 8
-39 13 -45 5 -5 9 -17 9 -26 0 -14 12 -17 75 -18 73 -1 76 -1 87 26 14 34 15
39 17 81 1 30 3 32 36 32 26 0 35 4 35 16 0 24 65 10 115 -25 l40 -27 50 48
c27 26 53 48 57 48 20 0 5 45 -27 78 -33 35 -47 82 -25 82 6 0 10 15 10 34 0
31 4 35 33 41 17 4 37 12 44 17 6 5 17 8 25 7 55 -7 58 -4 58 79 0 89 -8 102
-61 102 -62 0 -89 15 -89 50 0 20 -5 30 -15 30 -22 0 -19 44 5 65 11 10 20 24
20 32 0 7 5 13 10 13 6 0 10 11 10 25 0 14 -4 25 -8 25 -4 0 -15 13 -25 29
-10 17 -31 36 -47 45 -26 13 -34 13 -59 0 -16 -8 -34 -21 -41 -29 -16 -20 -69
-19 -76 0 -4 9 -19 15 -40 15 -33 0 -34 1 -34 40 0 22 -6 50 -12 63 -7 12 -13
23 -13 24 0 5 -76 10 -109 6z m112 -353 c2 -5 11 -10 20 -10 17 0 52 -28 52
-42 0 -5 10 -22 21 -37 18 -25 21 -40 17 -107 -2 -48 -8 -79 -16 -82 -6 -2
-33 -24 -59 -48 -26 -25 -58 -47 -71 -51 -29 -7 -108 3 -125 16 -49 40 -87 78
-87 88 0 6 -6 13 -12 16 -9 2 -13 28 -13 81 0 62 3 80 18 90 9 7 17 17 17 21
0 12 50 55 64 55 6 0 16 4 22 9 5 5 18 11 29 14 30 8 119 -1 123 -13z"/>
</g>
</g>
<g transform="translate(0.00,818.28)">
<g transform="translate(-210.000000,334.815884) scale(0.100000,-0.100000)"
fill="#0d1117" stroke="none">
<path d="M5723 3343 l-93 -4 -2 -317 -3 -317 -492 -3 c-317 -1 -493 -6 -493
-12 0 -6 -18 -10 -39 -10 -37 0 -102 -25 -109 -42 -2 -5 -11 -8 -20 -8 -18 0
-152 -132 -152 -150 0 -5 -4 -10 -10 -10 -5 0 -10 -8 -10 -18 0 -10 -9 -28
-20 -40 -14 -15 -20 -35 -20 -67 0 -31 -5 -47 -15 -51 -13 -5 -15 -74 -15
-530 0 -461 2 -523 15 -518 12 5 15 -3 15 -39 0 -25 6 -52 13 -59 7 -7 19 -29
27 -48 15 -38 19 -45 78 -107 21 -24 44 -43 50 -43 7 0 12 -4 12 -10 0 -5 8
-10 18 -10 10 0 28 -9 40 -20 13 -12 37 -21 57 -22 26 -1 34 -5 31 -15 -4 -10
22 -13 132 -13 128 -1 1232 -1 1370 0 l62 0 0 1233 c0 946 -3 1236 -12 1245
-12 12 -167 13 -415 5z m-495 -1092 l402 -1 0 -454 c0 -297 -4 -457 -10 -461
-6 -4 -8 -11 -5 -16 4 -5 -158 -9 -417 -9 -408 0 -424 1 -438 19 -7 11 -17 18
-22 15 -4 -3 -8 193 -8 435 0 406 1 442 18 460 10 11 29 17 47 16 17 -1 211
-3 433 -4z"/>
<path d="M5148 1323 c68 -2 176 -2 240 0 64 1 9 3 -123 3 -132 0 -185 -2 -117
-3z"/>
<path d="M6544 2701 c-2 -2 -4 -419 -4 -925 l0 -921 257 3 258 3 -3 694 -3
695 326 0 325 0 0 -695 0 -695 260 0 260 0 0 695 0 695 314 0 c277 0 315 -2
320 -16 3 -9 6 -321 6 -695 l0 -679 260 0 260 0 0 694 c0 507 -3 695 -11 698
-6 2 -15 35 -19 73 -4 39 -14 84 -23 100 -9 17 -17 36 -17 43 0 7 -7 15 -15
18 -8 4 -15 15 -15 25 0 11 -7 22 -15 25 -8 4 -15 11 -15 18 0 6 -13 20 -30
29 -16 10 -30 22 -30 28 0 5 -7 9 -15 9 -8 0 -15 5 -15 10 0 6 -9 10 -20 10
-11 0 -20 5 -20 10 0 6 -11 10 -25 10 -14 0 -25 5 -25 10 0 6 -15 10 -34 10
-19 0 -36 4 -38 10 -3 9 -2445 20 -2454 11z"/>
<path d="M10169 2693 c-13 -7 -39 -13 -56 -13 -18 0 -33 -4 -33 -10 0 -5 -11
-10 -25 -10 -14 0 -25 -4 -25 -10 0 -5 -8 -10 -17 -10 -28 0 -118 -77 -178
-152 -30 -37 -45 -71 -45 -98 0 -17 -7 -38 -15 -46 -9 -10 -13 -25 -9 -39 3
-12 -2 -44 -10 -69 -13 -39 -16 -105 -16 -410 0 -368 7 -549 20 -541 12 7 20
-21 20 -66 0 -21 4 -39 9 -39 5 0 12 -16 15 -36 7 -34 15 -47 64 -100 12 -14
22 -29 22 -35 0 -5 5 -9 10 -9 13 0 56 -43 53 -52 -2 -4 9 -11 25 -14 15 -4
42 -16 60 -26 18 -10 44 -18 58 -18 19 0 25 -4 20 -15 -6 -18 18 -18 907 -16
467 1 597 -1 597 -11 0 -9 3 -9 13 1 9 9 11 67 10 234 -2 122 -3 224 -3 227 0
3 -304 4 -675 2 -371 -1 -674 1 -673 5 0 5 -4 21 -11 38 -10 23 -14 26 -21 15
-7 -10 -10 5 -10 46 0 81 11 155 21 148 5 -3 9 -1 9 4 0 6 258 10 693 11 l692
0 3 353 c1 228 -1 355 -8 362 -5 5 -10 27 -10 48 0 25 -5 41 -15 44 -8 4 -15
10 -15 14 0 5 -5 21 -12 37 -6 15 -10 32 -10 36 1 4 -5 10 -13 13 -8 4 -15 12
-15 20 0 8 -9 19 -20 26 -11 7 -20 18 -20 25 0 7 -4 13 -10 13 -5 0 -10 6 -10
13 0 7 -20 21 -45 32 -25 11 -45 23 -45 27 0 3 -13 9 -30 13 -16 4 -30 11 -30
16 0 5 -18 9 -40 9 -22 0 -40 4 -40 10 0 16 -1080 18 -1111 3z m987 -457 c11
-11 14 -45 14 -145 l0 -131 -450 0 c-443 0 -450 0 -450 20 0 11 -4 20 -10 20
-6 0 -10 40 -10 101 0 69 3 98 11 93 6 -4 9 1 8 12 -8 44 -9 44 442 44 360 0
433 -2 445 -14z"/>
<path d="M2525 2690 c-3 -5 -24 -10 -45 -10 -21 0 -42 -4 -45 -10 -3 -5 -20
-10 -36 -10 -18 0 -28 -4 -24 -10 3 -5 -2 -10 -12 -10 -10 0 -29 -10 -43 -23
-14 -13 -29 -24 -35 -25 -13 -4 -75 -58 -75 -67 0 -4 -14 -25 -31 -46 -18 -23
-33 -56 -36 -79 -3 -22 -9 -40 -14 -40 -18 0 -29 -82 -29 -219 0 -139 15 -261
32 -261 4 0 8 -11 8 -24 0 -13 7 -26 15 -30 8 -3 15 -11 15 -19 0 -16 112
-137 127 -137 6 0 13 -7 17 -15 3 -8 17 -15 31 -15 14 0 28 -7 31 -15 4 -9 19
-15 40 -15 19 0 34 -4 34 -9 0 -4 37 -11 82 -15 45 -4 87 -11 94 -17 8 -7 150
-10 410 -8 l397 2 18 -24 c14 -18 19 -42 19 -101 0 -42 -4 -80 -10 -83 -5 -3
-10 -15 -10 -26 0 -18 -11 -19 -414 -19 l-414 0 -10 28 c-7 15 -10 36 -9 47 2
20 -4 20 -250 21 l-253 1 1 -81 c2 -94 10 -143 24 -136 6 3 11 -12 13 -33 2
-22 13 -48 28 -64 13 -14 24 -34 24 -45 0 -10 7 -21 16 -25 9 -3 38 -27 65
-54 26 -26 62 -50 78 -54 17 -4 31 -11 31 -16 0 -5 16 -9 36 -9 27 0 35 -4 31
-14 -8 -20 106 -23 673 -20 419 3 487 6 496 19 6 8 23 15 38 15 14 0 26 4 26
9 0 5 14 12 30 16 17 4 30 13 30 21 0 9 4 13 9 9 25 -15 151 154 166 223 4 18
10 30 14 27 13 -7 21 115 21 306 0 145 -3 179 -15 189 -8 7 -15 21 -15 32 0
30 -36 88 -92 149 -10 10 -18 24 -18 29 0 6 -9 10 -19 10 -10 0 -21 6 -24 14
-3 8 -20 17 -37 21 -17 4 -34 13 -37 21 -3 9 -20 14 -44 14 -27 0 -42 5 -46
16 -5 13 -58 15 -480 13 -563 -2 -511 -15 -520 132 -5 79 -3 97 10 108 13 10
97 13 409 12 216 -1 403 -4 414 -7 17 -4 23 -16 28 -56 7 -50 7 -50 39 -44 18
3 125 6 240 7 l207 2 0 84 c0 54 -4 82 -10 78 -6 -4 -10 10 -10 33 0 26 -5 42
-15 46 -8 3 -15 16 -15 30 0 13 -7 27 -15 30 -9 3 -15 11 -13 18 6 30 -111
143 -172 167 -19 8 -39 18 -45 23 -5 4 -22 8 -37 8 -15 0 -28 5 -28 10 0 7
-183 10 -529 10 -343 0 -532 -4 -536 -10z"/>
<path d="M10778 1323 c117 -2 306 -2 420 0 114 1 18 2 -213 2 -231 0 -324 -1
-207 -2z"/>
</g>
</g>
</svg>
